<?xml version="1.0" encoding="UTF-8" standalone="no"?>
<svg
   width="24px"
   height="24px"
   viewBox="0 0 24 24"
   fill="none"
   version="1.1"
   id="svg8"
   sodipodi:docname="carrinho.svg"
   inkscape:version="1.2.1 (9c6d41e410, 2022-07-14)"
   xmlns:inkscape="http://www.inkscape.org/namespaces/inkscape"
   xmlns:sodipodi="http://sodipodi.sourceforge.net/DTD/sodipodi-0.dtd"
   xmlns="http://www.w3.org/2000/svg"
   xmlns:svg="http://www.w3.org/2000/svg">
  <defs
     id="defs12" />
  <sodipodi:namedview
     id="namedview10"
     pagecolor="#ffffff"
     bordercolor="#999999"
     borderopacity="1"
     inkscape:showpageshadow="0"
     inkscape:pageopacity="0"
     inkscape:pagecheckerboard="0"
     inkscape:deskcolor="#d1d1d1"
     showgrid="false"
     inkscape:zoom="21.875"
     inkscape:cx="11.977143"
     inkscape:cy="11.977143"
     inkscape:window-width="1360"
     inkscape:window-height="705"
     inkscape:window-x="-8"
     inkscape:window-y="-8"
     inkscape:window-maximized="1"
     inkscape:current-layer="svg8" />
  <path
     d="M2.5 4.25C2.5 3.83579 2.83579 3.5 3.25 3.5H3.80826C4.75873 3.5 5.32782 4.13899 5.65325 4.73299C5.87016 5.12894 6.02708 5.58818 6.14982 6.00395C6.18306 6.00134 6.21674 6 6.2508 6H18.7481C19.5783 6 20.1778 6.79442 19.9502 7.5928L18.1224 14.0019C17.7856 15.1832 16.7062 15.9978 15.4779 15.9978H9.52977C8.29128 15.9978 7.2056 15.1699 6.87783 13.9756L6.11734 11.2045L4.85874 6.95578L4.8567 6.94834C4.701 6.38051 4.55487 5.85005 4.33773 5.4537C4.12686 5.0688 3.95877 5 3.80826 5H3.25C2.83579 5 2.5 4.66421 2.5 4.25Z"
     fill="#212121"
     id="path2"
     style="fill:#fefefe;fill-opacity:1" />
  <path
     d="M9 21C10.1046 21 11 20.1046 11 19C11 17.8954 10.1046 17 9 17C7.89543 17 7 17.8954 7 19C7 20.1046 7.89543 21 9 21Z"
     fill="#212121"
     id="path4"
     style="fill:#ffffff;fill-opacity:1" />
  <path
     d="M16 21C17.1046 21 18 20.1046 18 19C18 17.8954 17.1046 17 16 17C14.8954 17 14 17.8954 14 19C14 20.1046 14.8954 21 16 21Z"
     fill="#212121"
     id="path6"
     style="fill:#fefefe;fill-opacity:1" />
</svg>
