<?xml version="1.0" encoding="UTF-8" standalone="no"?>
<svg
   width="24px"
   height="24px"
   viewBox="0 0 24 24"
   fill="none"
   version="1.1"
   id="svg4"
   sodipodi:docname="cart-4-svgrepo-com.svg"
   inkscape:version="1.2.1 (9c6d41e410, 2022-07-14)"
   xmlns:inkscape="http://www.inkscape.org/namespaces/inkscape"
   xmlns:sodipodi="http://sodipodi.sourceforge.net/DTD/sodipodi-0.dtd"
   xmlns="http://www.w3.org/2000/svg"
   xmlns:svg="http://www.w3.org/2000/svg">
  <defs
     id="defs8" />
  <sodipodi:namedview
     id="namedview6"
     pagecolor="#ffffff"
     bordercolor="#999999"
     borderopacity="1"
     inkscape:showpageshadow="0"
     inkscape:pageopacity="0"
     inkscape:pagecheckerboard="0"
     inkscape:deskcolor="#d1d1d1"
     showgrid="false"
     inkscape:zoom="34.875"
     inkscape:cx="11.985663"
     inkscape:cy="12.014337"
     inkscape:window-width="1920"
     inkscape:window-height="1017"
     inkscape:window-x="-8"
     inkscape:window-y="-8"
     inkscape:window-maximized="1"
     inkscape:current-layer="svg4" />
  <path
     d="m 17,17 c -1.1046,0 -2,0.8954 -2,2 0,1.1046 0.8954,2 2,2 1.1046,0 2,-0.8954 2,-2 0,-1.1046 -0.8954,-2 -2,-2 z m 0,0 H 7.36729 C 6.86964,17 6.44772,16.6341 6.37735,16.1414 L 6.07143,14 M 2,3 h 2.5 l 0.28571,2 m 0,0 1.3612434,9.146953 L 17.978637,13.982783 20.942652,5.0286738 18,14 H 6.5 6.07143 M 4.78571,5 6.07143,14 M 11,19 c 0,1.1046 -0.8954,2 -2,2 -1.10457,0 -2,-0.8954 -2,-2 0,-1.1046 0.89543,-2 2,-2 1.1046,0 2,0.8954 2,2 z"
     stroke="#001a72"
     stroke-width="1.5"
     stroke-linecap="round"
     stroke-linejoin="round"
     id="path2"
     sodipodi:nodetypes="ssssscsccccccccccccccsssss"
     style="stroke:#ffffff;stroke-opacity:1" />
</svg>
